HIERARCHY
ROOT Hips
{
	OFFSET 0.00000 0.00000 0.00000
	CHANNELS 6 Xposition Yposition Zposition Zrotation Yrotation Xrotation 
	JOINT RightUpLegDummy
	{
		OFFSET 0 0 0
		CHANNELS 3 Zrotation Yrotation Xrotation
		JOINT RightUpLeg
		{
			OFFSET -3.52197 -3.41223 0.04002
			CHANNELS 3 Zrotation Yrotation Xrotation
			JOINT RightLeg
			{
				OFFSET -0.86543 -13.06008 -1.28655
				CHANNELS 3 Zrotation Yrotation Xrotation
				JOINT RightFoot
				{
					OFFSET -0.80713 -17.13930 -1.70707
					CHANNELS 3 Zrotation Yrotation Xrotation
					JOINT RightToes
					{
						OFFSET 0.00299 -1.73822 4.71938
						CHANNELS 3 Zrotation Yrotation Xrotation
						End Site
						{
							OFFSET 0.00480 -0.05414 3.03243
						}
					}
				}
			}
		}
	}
	JOINT SpineDummy
	{
		OFFSET 0 0 0
		CHANNELS 3 Zrotation Yrotation Xrotation
		JOINT Spine
		{
			OFFSET 0.00000 6.04702 0.41770
			CHANNELS 3 Zrotation Yrotation Xrotation
			JOINT Spine1
			{
				OFFSET -0.00002 10.39992 -1.69721
				CHANNELS 3 Zrotation Yrotation Xrotation
				JOINT HEadDummy
				{
					OFFSET 0 0 0
					CHANNELS 3 Zrotation Yrotation Xrotation
					JOINT Head
					{
						OFFSET -0.00001 3.43865 0.00443
						CHANNELS 3 Zrotation Yrotation Xrotation
						End Site
						{
							OFFSET -0.11418 5.02923 0.98969
						}
					}
				}
				JOINT LeftShoulder1Dummy
				{
					OFFSET 0 0 0
					CHANNELS 3 Zrotation Yrotation Xrotation
					JOINT LeftShoulder1
					{
						OFFSET 1.21361 -0.14262 -0.08662
						CHANNELS 3 Zrotation Yrotation Xrotation
						JOINT LeftArm
						{
							OFFSET 4.40875 -0.00132 0.12681
							CHANNELS 3 Zrotation Yrotation Xrotation
							JOINT LeftForeArm
							{
								OFFSET 8.94813 -0.09821 0.13217
								CHANNELS 3 Zrotation Yrotation Xrotation
								JOINT LeftHand
								{
									OFFSET 9.82063 -0.16591 0.14506
									CHANNELS 3 Zrotation Yrotation Xrotation
									End Site
									{
										OFFSET 7.19303 -0.20851 0.19067
									}
								}
							}
						}
					}
				}
				JOINT RightShoulderDummy
				{
					OFFSET 0 0 0
					CHANNELS 3 Zrotation Yrotation Xrotation
					JOINT RightShoulder
					{
						OFFSET -1.26534 -0.14262 -0.08661
						CHANNELS 3 Zrotation Yrotation Xrotation
						JOINT RightArm
						{
							OFFSET -4.30809 -0.00133 0.12683
							CHANNELS 3 Zrotation Yrotation Xrotation
							JOINT RightForeArm
							{
								OFFSET -8.99705 -0.09841 0.13211
								CHANNELS 3 Zrotation Yrotation Xrotation
								JOINT RightHand
								{
									OFFSET -9.82077 -0.16576 0.14421
									CHANNELS 3 Zrotation Yrotation Xrotation
									End Site
									{
										OFFSET -7.19310 -0.20866 0.18995
									}
								}
							}
						}
					}
				}
			}
		}
	}
	JOINT LeftUpLegDummy
	{
		OFFSET 0 0 0
		CHANNELS 3 Zrotation Yrotation Xrotation
		JOINT LeftUpLeg
		{
			OFFSET 3.52197 -3.41223 0.04002
			CHANNELS 3 Zrotation Yrotation Xrotation
			JOINT LeftLeg
			{
				OFFSET 0.94774 -13.07381 -1.28759
				CHANNELS 3 Zrotation Yrotation Xrotation
				JOINT LeftFoot
				{
					OFFSET 0.72832 -17.13147 -1.70602
					CHANNELS 3 Zrotation Yrotation Xrotation
					JOINT LeftToes
					{
						OFFSET -0.01574 -1.73820 4.71935
						CHANNELS 3 Zrotation Yrotation Xrotation
						End Site
						{
							OFFSET 0.03150 -0.01866 3.03230
						}
					}
				}
			}
		}
	}
}
MOTION
Frames: 19
Frame Time: 0.033333
-1.5598 39.2075 9.4615 0.8546 0.7647 4.5217 0.0000 0.0000 0.0000 4.3429 -0.0061 -13.9115 -0.7819 1.1814 14.2379 -4.0633 0.2472 13.0262 0.0000 0.0000 0.0000 0.0000 0.0000 0.0000 -2.1038 -0.6745 -4.7765 2.2411 -0.7362 -3.1817 -0.0000 0.0000 0.0000 0.3472 0.9394 4.5389 -0.0000 0.0000 0.0000 -2.0814 5.0557 -0.1600 19.4898 -18.5400 -53.5475 6.3339 -1.4169 67.9880 11.1896 -12.2576 -1.5791 -0.0000 0.0000 0.0000 1.9144 -4.0237 -0.0405 -22.3484 2.8547 -26.9410 5.2940 0.7096 35.3335 -12.7139 12.0712 -1.7422 0.0000 0.0000 0.0000 -4.4425 0.2532 -13.5983 0.7123 1.7279 12.6301 1.6584 0.2348 13.9852 -0.0000 -0.0000 -0.0000
-1.5475 39.2075 9.4425 0.8178 0.7486 4.4549 0.0000 0.0000 0.0000 4.3791 0.0029 -13.8697 -0.8053 1.1855 14.1832 -4.2272 0.2815 13.0952 0.0000 0.0000 0.0000 0.0000 0.0000 0.0000 -2.0145 -0.6920 -4.6873 2.0901 -0.7461 -3.2873 -0.0000 0.0000 0.0000 0.2811 1.0978 4.5715 -0.0000 0.0000 0.0000 -1.9942 5.1504 -0.1685 19.4135 -18.6353 -53.5485 6.3286 -1.4216 67.9182 10.9645 -12.1172 -1.5353 -0.0000 0.0000 0.0000 1.9943 -4.0147 -0.0405 -22.2952 2.9793 -26.9726 5.3303 0.7032 35.0478 -12.8130 12.0874 -1.7565 0.0000 0.0000 0.0000 -4.4541 0.2388 -13.6051 0.7430 1.7319 12.7160 1.8169 0.1997 13.9911 -0.0000 -0.0000 -0.0000
-1.5353 39.2075 9.4092 0.8267 0.6963 4.2511 0.0000 0.0000 0.0000 4.3396 -0.0690 -13.7166 -0.7561 1.2713 14.2680 -4.2620 0.2894 13.0527 0.0000 0.0000 0.0000 0.0000 0.0000 0.0000 -2.0149 -0.6514 -4.3033 2.1522 -0.7044 -3.9574 -0.0000 0.0000 0.0000 0.3037 1.1195 4.7214 -0.0000 0.0000 0.0000 -2.1409 5.1357 -0.1691 19.4344 -18.6243 -53.4771 6.2736 -1.4218 67.9572 10.7176 -11.9749 -1.4890 -0.0000 0.0000 0.0000 1.9787 -4.0101 -0.0405 -22.1738 3.0526 -27.0029 5.3061 0.7002 34.9102 -12.9327 12.2590 -1.7937 0.0000 0.0000 0.0000 -4.4442 0.2455 -13.3690 0.7383 1.8329 12.5997 1.5229 0.2661 14.0193 -0.0000 -0.0000 -0.0000
-1.5168 39.2075 9.3882 0.7057 0.6225 4.1440 0.0000 0.0000 0.0000 4.4187 -0.0850 -13.5412 -0.7241 1.4324 14.0894 -3.9984 0.2323 13.1053 0.0000 0.0000 0.0000 0.0000 0.0000 0.0000 -1.7161 -0.6923 -4.1447 1.5330 -0.7118 -4.1541 -0.0000 0.0000 0.0000 0.4492 1.1503 4.7586 -0.0000 0.0000 0.0000 -2.1148 5.1944 -0.1748 19.3044 -18.5466 -53.1969 6.0691 -1.4175 67.7269 10.9391 -11.7870 -1.4948 -0.0000 0.0000 0.0000 2.0576 -4.0052 -0.0405 -22.0619 3.1801 -27.0519 5.2561 0.7034 35.0501 -13.0795 12.4222 -1.8335 0.0000 0.0000 0.0000 -4.3546 0.2591 -13.3573 0.7509 1.9405 12.7282 1.7328 0.2180 13.9787 -0.0000 -0.0000 -0.0000
-1.5043 39.2075 9.3732 0.6309 0.6016 4.1044 0.0000 0.0000 0.0000 4.4903 -0.0934 -13.4985 -0.7563 1.4354 14.0241 -4.0777 0.2489 13.1491 0.0000 0.0000 0.0000 0.0000 0.0000 0.0000 -1.5463 -0.7026 -4.1768 1.2163 -0.7093 -3.9472 -0.0000 0.0000 0.0000 0.4809 1.0419 4.7501 -0.0000 0.0000 0.0000 -2.0619 5.3379 -0.1888 19.1334 -18.8328 -53.3399 6.1879 -1.4197 67.8456 10.5488 -11.7237 -1.4410 -0.0000 0.0000 0.0000 2.0327 -3.9915 -0.0405 -21.9803 3.2277 -27.1030 5.2061 0.7064 35.1795 -13.1243 12.4154 -1.8382 0.0000 0.0000 0.0000 -4.2962 0.2681 -13.3922 0.7619 1.9575 12.8337 1.7165 0.2195 13.8997 -0.0000 -0.0000 -0.0000
-1.4930 39.2075 9.3639 0.6215 0.5637 4.1666 0.0000 0.0000 0.0000 4.4786 -0.1185 -13.5757 -0.7158 1.5179 14.0033 -4.1614 0.2663 13.1997 0.0000 0.0000 0.0000 0.0000 0.0000 0.0000 -1.4879 -0.6880 -4.4369 1.1395 -0.6928 -3.4497 -0.0000 0.0000 0.0000 0.5814 1.0584 4.7460 -0.0000 0.0000 0.0000 -2.0678 5.1508 -0.1697 19.0559 -18.6158 -53.3606 6.2834 -1.4202 67.8753 10.7962 -11.8738 -1.4873 -0.0000 0.0000 0.0000 1.9989 -3.9340 -0.0405 -21.9369 3.1155 -27.0467 5.2176 0.7070 35.2082 -13.0651 12.4534 -1.8360 0.0000 0.0000 0.0000 -4.2985 0.2464 -13.4738 0.7720 1.9891 12.8443 1.6049 0.2440 13.8899 -0.0000 -0.0000 -0.0000
-1.4841 39.2075 9.3487 0.5848 0.5253 4.1094 0.0000 0.0000 0.0000 4.4645 -0.1675 -13.5629 -0.6365 1.5775 14.0525 -4.0089 0.2339 13.1646 0.0000 0.0000 0.0000 0.0000 0.0000 0.0000 -1.4189 -0.6837 -4.3796 1.0869 -0.6855 -3.6821 -0.0000 0.0000 0.0000 0.5682 1.0054 4.8849 -0.0000 0.0000 0.0000 -1.9887 5.0900 -0.1623 18.9157 -18.3796 -53.1833 6.1871 -1.4125 67.4844 11.1481 -11.8506 -1.5269 -0.0000 0.0000 0.0000 1.9982 -3.8919 -0.0403 -21.8856 2.9551 -27.1556 5.0780 0.7123 35.4400 -12.8633 12.1538 -1.7712 0.0000 0.0000 0.0000 -4.2261 0.2374 -13.3990 0.7942 2.0367 12.8043 0.9793 0.3831 13.8962 -0.0000 -0.0000 -0.0000
-1.4893 39.2075 9.3463 0.7068 0.5209 4.1955 0.0000 0.0000 0.0000 4.3350 -0.1581 -13.7146 -0.5934 1.6285 14.1614 -4.0487 0.2426 13.1483 0.0000 0.0000 0.0000 0.0000 0.0000 0.0000 -1.7093 -0.6509 -4.6432 1.6725 -0.6878 -3.1377 -0.0000 0.0000 0.0000 0.4672 0.9507 4.6939 -0.0000 0.0000 0.0000 -1.9881 5.1360 -0.1670 18.9141 -18.2500 -53.1341 6.1577 -1.4085 67.2866 10.8311 -11.9297 -1.4978 -0.0000 0.0000 0.0000 2.0056 -3.8893 -0.0404 -21.9693 2.7892 -27.2424 5.0353 0.7110 35.3769 -12.8242 12.2343 -1.7772 0.0000 0.0000 0.0000 -4.4371 0.2265 -13.5004 0.8098 2.0132 12.7800 1.7995 0.2018 13.9268 -0.0000 -0.0000 -0.0000
-1.4857 39.2085 9.3337 0.6893 0.5807 4.1642 0.0000 0.0000 0.0000 4.3058 -0.1951 -13.7080 -0.5833 1.5028 14.1528 -3.8815 0.2064 13.1685 0.0000 0.0000 0.0000 0.0000 0.0000 0.0000 -1.7220 -0.6669 -4.5805 1.6417 -0.6968 -3.4269 -0.0000 0.0000 0.0000 0.6033 0.8481 4.7233 -0.0000 0.0000 0.0000 -1.9367 5.1674 -0.1694 19.0643 -18.0494 -52.8471 5.9077 -1.4049 67.0902 10.5461 -11.9274 -1.4632 -0.0000 0.0000 0.0000 1.9859 -3.9123 -0.0405 -21.8111 2.5009 -27.4225 4.9802 0.7015 34.9445 -12.5735 12.0177 -1.7182 0.0000 0.0000 0.0000 -4.4458 0.1742 -13.4921 0.8584 2.0473 12.7711 1.7560 0.2135 13.9991 -0.0000 -0.0000 -0.0000
-1.4822 39.2121 9.3248 0.6481 0.6384 4.0321 0.0000 0.0000 0.0000 4.2952 -0.3041 -13.5572 -0.4718 1.5121 14.1094 -3.9053 0.2107 13.2254 0.0000 0.0000 0.0000 0.0000 0.0000 0.0000 -1.7174 -0.7039 -4.3397 1.5093 -0.7217 -3.8041 -0.0000 0.0000 0.0000 0.7890 0.8465 4.6985 -0.0000 0.0000 0.0000 -1.7563 5.3185 -0.1820 18.9474 -18.0184 -53.0666 6.1278 -1.4014 66.9293 10.5046 -11.6837 -1.4315 -0.0000 0.0000 0.0000 1.8687 -3.8917 -0.0398 -21.1746 2.0114 -27.3885 5.0432 0.6685 33.4650 -12.6842 11.8979 -1.7164 0.0000 0.0000 0.0000 -4.4316 0.1952 -13.4356 0.8465 1.9858 12.8768 1.9974 0.1594 13.9881 -0.0000 -0.0000 -0.0000
-1.4811 39.2147 9.3213 0.7578 0.8888 4.0606 0.0000 0.0000 0.0000 4.1334 -0.4846 -13.6358 -0.3817 1.2706 14.1817 -4.3154 0.2996 13.1793 0.0000 0.0000 0.0000 0.0000 0.0000 0.0000 -1.9996 -0.7122 -4.4023 1.9954 -0.7597 -3.2749 -0.0000 0.0000 0.0000 0.9342 0.6477 4.6321 -0.0000 0.0000 0.0000 -1.8052 5.3066 -0.1815 18.6549 -17.8455 -52.9917 6.1180 -1.3870 66.2215 10.4474 -11.6216 -1.4178 -0.0000 0.0000 0.0000 1.7834 -3.8763 -0.0375 -20.2233 1.1960 -27.6139 5.0888 0.6083 30.7438 -12.4963 10.8839 -1.5644 0.0000 0.0000 0.0000 -4.5169 0.2277 -13.4666 0.7533 1.8308 12.8068 1.8685 0.1924 14.1471 -0.0000 -0.0000 -0.0000
-1.4580 39.2197 9.3096 0.5047 1.1780 4.0175 0.0000 0.0000 0.0000 4.2830 -0.7295 -13.3144 -0.2558 1.1959 13.6791 -4.0313 0.2364 13.3716 0.0000 0.0000 0.0000 0.0000 0.0000 0.0000 -1.4742 -0.8995 -4.1923 0.3473 -0.8372 -2.7996 -0.0000 0.0000 0.0000 1.3885 0.3826 4.3070 -0.0000 0.0000 0.0000 -1.7898 5.0799 -0.1583 18.2968 -17.4969 -52.9663 6.1593 -1.3605 64.9250 11.1573 -11.2795 -1.4620 -0.0000 0.0000 0.0000 2.0569 -3.7687 -0.0272 -18.0910 0.2827 -29.1462 4.3925 0.5304 27.1369 -12.6625 10.1714 -1.4907 0.0000 0.0000 0.0000 -4.2836 0.2178 -13.7813 0.6819 1.5876 13.3285 2.0612 0.1467 14.0501 -0.0000 -0.0000 -0.0000
-1.4248 39.2258 9.2882 0.2930 1.6144 3.9805 0.0000 0.0000 0.0000 4.3866 -1.0809 -13.0778 -0.0803 1.2073 13.2804 -4.2417 0.2796 13.5933 0.0000 0.0000 0.0000 0.0000 0.0000 0.0000 -1.0602 -1.0931 -3.9834 -1.2247 -0.9080 -2.0321 -0.0000 0.0000 0.0000 1.8279 -0.0787 3.8133 -0.0000 0.0000 0.0000 -1.9858 4.2829 -0.0798 16.7947 -16.8786 -53.3090 6.9573 -1.3598 64.9477 11.9828 -10.9246 -1.5133 -0.0000 0.0000 0.0000 2.8300 -3.4638 0.0045 -15.1372 -1.0701 -30.6119 4.0221 0.4044 21.2254 -12.9706 8.6932 -1.3303 0.0000 0.0000 0.0000 -4.0914 0.1037 -14.1145 0.6469 1.3219 13.8138 1.9725 0.1671 14.0674 -0.0000 -0.0000 -0.0000
-1.3975 39.2275 9.2456 0.3324 2.3802 4.2550 0.0000 0.0000 0.0000 4.2414 -1.2565 -13.5860 -0.1313 0.7071 13.5518 -3.7442 0.1730 13.4216 0.0000 0.0000 0.0000 0.0000 0.0000 0.0000 -1.0832 -1.2839 -4.0170 -1.6781 -1.0380 -0.8950 -0.0000 0.0000 0.0000 1.9051 -0.5680 2.5863 -0.0000 0.0000 0.0000 -2.2932 3.5817 -0.0077 13.4765 -16.6383 -52.9896 7.4274 -1.3427 64.1631 13.0059 -10.3478 -1.5512 -0.0000 0.0000 0.0000 4.1663 -3.1852 0.0385 -11.3400 -2.4741 -32.2099 4.0682 0.2316 12.7600 -13.8401 7.6836 -1.2671 0.0000 0.0000 0.0000 -4.1877 -0.1867 -14.9122 0.6292 0.9275 14.3784 1.7633 0.2183 14.2314 -0.0000 -0.0000 -0.0000
-1.3546 39.2230 9.1909 0.5216 3.3366 4.3334 0.0000 0.0000 0.0000 3.9507 -1.5094 -14.4940 -0.2461 0.0248 14.9498 -3.7013 0.1729 12.8180 0.0000 0.0000 0.0000 0.0000 0.0000 0.0000 -1.2878 -1.3699 -3.5339 -1.5573 -1.1151 -0.2764 -0.0000 0.0000 0.0000 1.8566 -1.0666 0.9176 -0.0000 0.0000 0.0000 -3.1669 3.2113 0.0321 8.5675 -17.0100 -51.6325 7.0545 -1.2811 61.1701 13.4797 -9.5588 -1.4955 -0.0000 0.0000 0.0000 6.4581 -3.0703 0.0617 -6.6551 -3.5138 -35.8244 2.9317 0.0985 5.6875 -14.4654 5.4225 -0.9956 0.0000 0.0000 0.0000 -4.5425 -0.5463 -15.6293 0.5833 0.3811 15.1993 2.1859 0.1219 14.1731 -0.0000 -0.0000 -0.0000
-1.2757 39.2197 9.1129 0.4128 3.9682 4.3045 0.0000 0.0000 0.0000 3.7938 -1.9097 -15.3026 -0.0789 -0.1302 16.2437 -3.3748 0.1112 12.3962 0.0000 0.0000 0.0000 0.0000 0.0000 0.0000 -0.6900 -1.3763 -2.8794 -2.6508 -1.0194 0.0913 -0.0000 0.0000 0.0000 2.0081 -1.7194 -1.1202 -0.0000 0.0000 0.0000 -4.3370 3.3607 0.0179 2.2684 -18.7598 -50.8505 7.4137 -1.2600 60.1951 12.9598 -9.2463 -1.4024 -0.0000 0.0000 0.0000 9.4723 -2.9331 0.0962 -0.8284 -3.7062 -40.1080 1.9480 -0.0478 -2.8615 -15.7853 5.3025 -1.0640 0.0000 0.0000 0.0000 -4.5557 -0.7432 -16.5405 0.4468 -0.0092 16.5143 2.4904 0.0489 13.9681 -0.0000 -0.0000 -0.0000
-1.1853 39.1991 9.0247 0.3914 4.4671 4.4342 0.0000 0.0000 0.0000 3.7084 -1.9446 -16.4597 -0.2567 -0.4565 17.8314 -3.3223 0.1100 11.8538 0.0000 0.0000 0.0000 0.0000 0.0000 0.0000 -0.2073 -1.0417 -2.5609 -2.8711 -0.6584 0.9849 -0.0000 0.0000 0.0000 1.5969 -3.0453 -3.0178 -0.0000 0.0000 0.0000 -6.7017 2.8063 0.1015 -5.2457 -20.2958 -48.3611 6.5890 -1.1950 57.1165 11.6646 -8.1929 -1.1526 -0.0000 0.0000 0.0000 12.8610 -2.9174 0.1167 6.1865 -3.4826 -42.3657 2.1782 -0.2022 -13.2354 -18.4444 6.7751 -1.4925 0.0000 0.0000 0.0000 -4.7385 -1.1217 -17.5635 0.5554 -0.1201 17.7402 2.3163 0.0799 13.6210 -0.0000 -0.0000 -0.0000
-1.0640 39.1764 8.9550 0.2806 4.7700 4.5765 0.0000 0.0000 0.0000 3.6214 -2.1961 -17.5827 -0.2337 -0.5358 19.3350 -3.3755 0.1277 11.4900 0.0000 0.0000 0.0000 0.0000 0.0000 0.0000 0.3437 -0.6343 -2.6180 -3.2604 -0.1616 3.5933 -0.0000 0.0000 0.0000 1.0396 -4.0175 -5.4104 -0.0000 0.0000 0.0000 -9.5342 1.8713 0.2754 -14.4576 -21.2107 -44.5246 4.7387 -0.9052 47.5955 9.7460 -7.2159 -0.8816 -0.0000 0.0000 0.0000 16.7907 -2.9909 0.1205 13.3612 -1.4274 -41.5431 3.8186 -0.3485 -22.4496 -19.9703 8.6130 -1.9626 0.0000 0.0000 0.0000 -4.7932 -1.2431 -18.5334 0.4781 -0.1388 18.8945 2.4463 0.0447 13.3122 -0.0000 -0.0000 -0.0000
-0.9286 39.1383 8.8238 0.1050 4.8560 4.5999 0.0000 0.0000 0.0000 3.5223 -2.4615 -18.8606 -0.1043 -0.4333 21.0854 -3.0731 0.0760 11.0437 0.0000 0.0000 0.0000 0.0000 0.0000 0.0000 0.8102 -0.3340 -2.3765 -3.8049 0.2421 5.5885 -0.0000 0.0000 0.0000 0.7440 -4.8462 -7.4213 -0.0000 0.0000 0.0000 -13.0147 0.8241 0.5419 -24.4851 -21.5855 -40.4482 2.8957 -1.2295 33.5785 8.4106 -6.8614 -0.7455 -0.0000 0.0000 0.0000 20.8890 -3.0792 0.1163 20.3054 2.7925 -39.3394 4.8048 0.2675 -24.5568 -20.3962 8.7961 -2.0404 0.0000 0.0000 0.0000 -4.7605 -1.2179 -19.6679 0.3120 0.0420 20.3767 2.7870 -0.0360 12.9533 -0.0000 -0.0000 -0.0000
